<?xml version="1.0" standalone="no"?>
<!DOCTYPE svg PUBLIC "-//W3C//DTD SVG 20010904//EN"
 "http://www.w3.org/TR/2001/REC-SVG-20010904/DTD/svg10.dtd">
<svg version="1.0" xmlns="http://www.w3.org/2000/svg"
 width="210.000000pt" height="210.000000pt" viewBox="0 0 210.000000 210.000000"
 preserveAspectRatio="xMidYMid meet">

<g transform="translate(0.000000,210.000000) scale(0.100000,-0.100000)"
fill="#000000" stroke="none">
<path d="M892 1695 c-30 -7 -92 -32 -140 -55 -113 -57 -233 -172 -284 -275
-45 -90 -85 -215 -69 -215 4 0 17 35 30 78 32 109 83 196 165 278 128 128 275
188 456 188 181 0 328 -60 456 -188 83 -83 127 -157 165 -275 16 -50 28 -75
28 -60 1 14 -8 51 -19 83 -36 106 -82 179 -165 262 -67 68 -96 89 -175 127
-52 25 -119 50 -148 56 -70 15 -234 13 -300 -4z"/>
<path d="M974 1678 c-145 -15 -276 -81 -382 -193 -84 -88 -137 -186 -166 -307
l-6 -28 95 0 c86 0 95 2 95 19 0 42 71 160 128 212 183 167 449 166 627 -2 55
-52 125 -170 125 -210 0 -17 9 -19 95 -19 l95 0 -6 28 c-31 130 -82 221 -179
318 -142 144 -315 204 -521 182z m84 -81 c25 -49 26 -57 12 -57 -11 0 -21 14
-29 40 -12 42 -31 54 -31 20 0 -11 6 -20 13 -21 6 0 2 -4 -11 -10 -13 -5 -20
-13 -17 -19 3 -5 1 -10 -4 -10 -6 0 -11 2 -11 5 0 11 42 116 46 113 2 -2 16
-30 32 -61z m-128 33 c0 -4 -10 -6 -21 -3 -20 6 -21 3 -15 -23 4 -16 13 -41
21 -56 11 -24 11 -27 -4 -30 -12 -3 -19 9 -29 46 -16 62 -20 66 -39 41 -14
-19 -15 -19 -11 -1 2 13 17 23 43 31 41 12 55 11 55 -5z m230 -7 c-19 -63 -20
-81 -3 -87 9 -4 25 1 36 11 19 18 20 17 8 -5 -10 -20 -17 -22 -44 -16 -44 9
-48 13 -38 32 4 9 11 34 15 55 4 22 13 37 21 37 11 0 12 -6 5 -27z m123 -9 c9
-3 12 -14 10 -28 -6 -32 14 -42 38 -20 10 9 22 15 25 12 3 -3 -11 -16 -30 -28
-20 -12 -39 -32 -42 -45 -4 -15 -11 -22 -20 -18 -10 4 -11 10 -3 25 6 11 9 40
7 64 -2 24 -2 44 -1 44 1 0 8 -2 16 -6z m-477 -86 c13 -21 24 -40 24 -42 0 -3
-25 6 -55 20 -31 13 -58 24 -61 24 -7 0 38 -64 48 -68 5 -2 5 -8 2 -14 -3 -5
-21 14 -40 43 -19 28 -32 54 -29 57 4 5 53 -8 94 -25 9 -4 6 6 -8 26 -13 18
-19 36 -14 43 5 9 9 8 11 -6 2 -11 15 -37 28 -58z m639 -18 c11 -12 15 -24 9
-28 -5 -4 -8 -6 -7 -3 5 10 -19 41 -32 41 -18 0 -19 -17 -1 -50 17 -29 5 -60
-23 -60 -27 0 -62 42 -51 60 8 12 10 11 10 -6 0 -28 27 -51 42 -36 8 8 7 19
-2 41 -7 17 -10 37 -6 46 8 21 40 19 61 -5z m-816 -39 c-21 -16 -22 -21 -9
-36 12 -15 15 -15 25 -2 7 9 16 12 24 8 9 -6 6 -10 -10 -14 -22 -6 -22 -7 -4
-27 17 -19 20 -19 36 -4 10 9 15 23 12 32 -4 10 -2 13 5 8 17 -11 15 -21 -13
-54 l-25 -30 -43 42 -42 41 18 28 c10 15 25 27 34 27 11 0 9 -5 -8 -19z m900
-53 c-2 -2 -23 -18 -47 -36 -59 -46 -73 -29 -15 18 29 23 52 35 57 29 5 -5 8
-10 5 -11z m-919 -78 c24 -24 25 -32 4 -71 l-15 -30 -42 24 c-23 13 -48 26
-54 28 -9 3 -7 13 7 37 24 38 68 44 100 12z m978 -13 c7 -15 10 -33 5 -40 -5
-8 -9 -2 -13 17 -8 46 -30 45 -30 -2 0 -70 -52 -83 -74 -18 -7 19 -6 29 4 39
10 10 12 9 6 -7 -9 -25 2 -56 19 -56 16 0 26 25 19 44 -8 21 15 58 34 54 9 -2
23 -16 30 -31z"/>
<path d="M520 1326 c-9 -12 -4 -18 29 -35 48 -25 57 -26 65 -6 14 38 -67 73
-94 41z"/>
<path d="M955 1476 c-224 -54 -376 -277 -336 -493 18 -99 63 -184 132 -247
181 -167 433 -164 605 8 175 176 175 436 0 612 -112 111 -258 155 -401 120z
m200 -20 c120 -32 224 -118 276 -230 122 -261 -59 -571 -344 -593 -330 -25
-558 309 -412 603 87 178 291 271 480 220z"/>
<path d="M955 1446 c-120 -29 -222 -115 -278 -234 -29 -61 -32 -76 -32 -162 0
-86 3 -101 32 -162 44 -94 109 -160 202 -206 71 -35 80 -37 171 -37 91 0 100
2 171 37 93 46 158 113 202 206 28 60 31 77 32 162 0 86 -3 101 -32 162 -87
185 -278 280 -468 234z m-5 -41 c-10 -12 -10 -15 0 -15 8 0 11 -3 7 -6 -3 -3
-11 -3 -17 1 -8 5 -8 11 1 21 6 8 14 14 16 14 3 0 0 -7 -7 -15z m35 5 c-3 -5
-1 -10 6 -10 7 0 10 -3 6 -6 -9 -9 -28 6 -22 17 4 5 8 9 11 9 3 0 2 -4 -1 -10z
m140 -11 c-4 -5 -12 -9 -18 -8 -9 0 -8 2 1 6 6 2 9 10 6 15 -4 7 -2 8 5 4 6
-4 9 -12 6 -17z m39 -10 c-3 -5 -11 -9 -17 -8 -8 0 -8 2 1 6 10 4 10 8 0 21
-12 15 -11 16 4 3 10 -7 15 -17 12 -22z m-250 6 c-4 -8 -11 -15 -16 -15 -6 0
-5 6 2 15 7 8 14 15 16 15 2 0 1 -7 -2 -15z m286 0 c7 -9 8 -15 2 -15 -5 0
-12 7 -16 15 -3 8 -4 15 -2 15 2 0 9 -7 16 -15z m-324 -20 c-3 -8 2 -19 12
-24 15 -9 14 -10 -6 -11 -13 0 -20 4 -17 10 3 6 1 10 -6 10 -8 0 -8 4 1 15 16
19 24 19 16 0z m361 -15 c-1 -13 -8 -20 -22 -20 -18 1 -18 2 -3 11 11 6 15 16
11 26 -4 10 -2 14 5 9 6 -3 10 -15 9 -26z m-402 -10 c-5 -16 -2 -20 17 -21 18
-1 19 -2 4 -6 -23 -6 -41 11 -33 31 9 23 19 19 12 -4z m92 14 c-3 -3 -12 -4
-19 -1 -8 3 -5 6 6 6 11 1 17 -2 13 -5z m270 0 c-3 -3 -12 -4 -19 -1 -8 3 -5
6 6 6 11 1 17 -2 13 -5z m80 -28 c-4 -9 -17 -15 -29 -15 l-23 2 23 4 c18 4 22
9 16 26 -5 17 -4 19 6 10 7 -6 10 -19 7 -27z m-467 -5 c0 -6 -4 -13 -10 -16
-5 -3 -10 1 -10 9 0 9 5 16 10 16 6 0 10 -4 10 -9z m500 -7 c0 -8 -4 -12 -10
-9 -5 3 -10 10 -10 16 0 5 5 9 10 9 6 0 10 -7 10 -16z m-544 -51 c-11 -11 -17
4 -9 23 7 18 8 18 11 1 2 -10 1 -21 -2 -24z m584 5 c0 -5 -4 -8 -10 -8 -5 0
-10 10 -10 23 0 18 2 19 10 7 5 -8 10 -18 10 -22z m-517 15 c-7 -2 -19 -2 -25
0 -7 3 -2 5 12 5 14 0 19 -2 13 -5z m244 -8 c2 -5 -13 -10 -32 -10 -35 0 -42
5 -28 19 10 10 56 3 60 -9z m216 8 c-7 -2 -19 -2 -25 0 -7 3 -2 5 12 5 14 0
19 -2 13 -5z m-552 -56 c-8 -8 -11 -3 -11 19 1 25 2 27 11 11 8 -14 8 -22 0
-30z m629 16 c0 -21 -3 -24 -9 -14 -5 8 -7 20 -4 28 8 21 13 15 13 -14z m-570
7 c-20 -13 -33 -13 -25 0 3 6 14 10 23 10 15 0 15 -2 2 -10z m525 0 c8 -13 -5
-13 -25 0 -13 8 -13 10 2 10 9 0 20 -4 23 -10z m-245 -10 c0 -5 -4 -10 -10
-10 -22 0 -8 -17 28 -33 50 -22 64 -21 94 3 24 18 28 19 57 4 17 -8 31 -16 31
-18 0 -1 -15 0 -34 2 -24 3 -37 -1 -47 -15 -16 -21 -52 -27 -80 -13 -17 9 -19
7 -20 -17 0 -15 -3 -80 -5 -143 -2 -63 -4 -132 -4 -152 0 -33 -3 -38 -24 -38
-14 0 -31 -3 -40 -6 -12 -4 -16 0 -16 16 0 27 -88 192 -98 186 -4 -3 -8 3 -8
12 0 9 -4 28 -9 42 -7 22 -6 23 8 12 13 -11 20 -4 52 53 20 36 46 70 57 76 15
8 17 14 9 22 -19 19 -12 27 24 27 19 0 35 -4 35 -10z m-294 -19 c-3 -5 -15
-11 -26 -14 -17 -4 -19 -3 -9 9 12 15 44 20 35 5z m563 -5 c10 -12 8 -13 -9
-9 -25 7 -37 23 -17 23 8 0 20 -6 26 -14z m-629 -21 c0 -25 1 -25 25 -9 14 9
25 12 25 6 0 -21 -40 -35 -58 -20 -14 11 -15 11 -9 -5 4 -10 7 -23 7 -28 0 -5
11 -2 25 7 31 20 34 1 3 -20 -19 -14 -23 -14 -38 4 -14 16 -15 26 -6 55 13 41
26 46 26 10z m685 -15 c9 -52 -11 -77 -44 -54 -30 21 -26 40 4 20 14 -9 25
-12 25 -7 0 5 3 18 7 28 6 16 5 16 -9 5 -18 -15 -58 -1 -58 20 0 6 11 3 25 -6
24 -16 25 -16 25 9 0 39 18 29 25 -15z m-705 -98 c0 -12 -3 -12 -15 -2 -8 7
-15 22 -15 34 1 21 1 21 15 2 8 -11 15 -26 15 -34z m716 0 c-20 -20 -22 -1 -4
31 11 20 12 21 16 3 2 -10 -3 -26 -12 -34z m-201 19 c-7 -7 -21 -11 -29 -8
-26 10 -18 22 14 22 25 0 27 -2 15 -14z m83 2 c-8 -7 -22 -11 -31 -7 -26 10
-20 19 14 20 26 1 28 -1 17 -13z m-548 -2 c0 -13 -29 -35 -37 -28 -7 8 15 37
28 37 5 0 9 -4 9 -9z m630 -6 c7 -9 10 -18 7 -22 -8 -7 -37 15 -37 28 0 14 16
11 30 -6z m-680 -66 c0 -5 -5 -9 -10 -9 -10 0 -30 41 -30 58 1 10 40 -39 40
-49z m731 17 c-6 -14 -15 -26 -21 -26 -14 0 -12 12 6 38 20 29 28 23 15 -12z
m-684 -15 c1 -24 -4 -44 -13 -51 -17 -15 -19 1 -4 30 8 16 8 18 -5 14 -18 -7
-19 0 -5 27 16 30 26 23 27 -20z m633 20 c14 -26 13 -34 -4 -28 -11 5 -12 0
-3 -24 l12 -30 18 26 c22 30 43 34 27 6 -5 -11 -7 -26 -4 -35 3 -8 -4 -24 -17
-37 -17 -17 -24 -19 -27 -9 -3 7 6 22 19 33 22 18 22 19 3 13 -30 -9 -53 21
-51 67 1 41 11 47 27 18z m-686 -53 c21 -29 20 -39 -1 -31 -12 4 -10 -1 6 -14
13 -11 22 -26 19 -33 -3 -10 -10 -8 -27 9 -13 13 -20 29 -17 37 3 9 1 24 -4
35 -15 27 5 25 24 -3z m52 -76 c-15 -15 -16 -15 -16 2 0 9 6 27 12 39 l13 22
3 -24 c2 -13 -3 -31 -12 -39z m624 5 c0 -10 -5 -15 -11 -12 -14 9 -28 48 -21
59 7 12 32 -24 32 -47z m-599 -50 c-8 -8 -11 -2 -11 19 0 40 14 54 18 19 2
-15 -1 -32 -7 -38z m569 22 c0 -18 -4 -28 -10 -24 -5 3 -10 20 -10 36 0 18 4
28 10 24 6 -3 10 -20 10 -36z m-590 -31 c0 -14 -23 -9 -42 9 -28 26 -21 36 12
16 17 -9 30 -21 30 -25z m645 12 c-10 -11 -25 -20 -34 -20 -11 1 -8 8 13 26
32 29 48 24 21 -6z m-585 -13 c0 -57 -37 -74 -81 -37 -23 18 -23 19 -4 20 11
0 31 -7 44 -16 22 -16 23 -15 21 7 -4 41 0 59 10 59 6 0 10 -15 10 -33z m501
16 c1 -10 0 -28 -1 -41 -2 -23 -1 -23 24 -7 14 9 33 15 43 13 15 -3 14 -6 -9
-22 -18 -12 -37 -16 -53 -12 -21 5 -25 12 -25 46 0 38 19 58 21 23z m-465 -47
c11 -45 2 -61 -37 -64 -24 -2 -40 2 -50 14 -13 15 -11 17 16 12 17 -3 38 -9
49 -13 16 -7 17 -6 7 13 -14 26 -14 62 -1 62 5 0 12 -11 16 -24z m434 1 c0
-13 -7 -32 -15 -43 -14 -18 -14 -18 -15 8 0 32 9 58 21 58 5 0 9 -10 9 -23z
m-392 -32 c7 -14 12 -34 12 -43 -1 -25 -40 24 -40 49 0 27 15 24 28 -6z m352
8 c0 -10 -9 -31 -20 -48 -18 -27 -20 -28 -20 -8 0 30 17 73 30 73 5 0 10 -8
10 -17z m-297 -46 c11 -21 13 -37 6 -48 -11 -22 -62 -34 -86 -20 -16 9 -15 11
12 21 16 6 37 9 47 7 10 -3 18 -1 18 4 0 5 -4 9 -9 9 -5 0 -14 14 -20 31 -14
40 -14 39 3 33 8 -3 21 -20 29 -37z m246 5 c-6 -18 -15 -32 -20 -32 -5 0 -9
-4 -9 -9 0 -4 10 -7 23 -6 12 1 33 -2 47 -7 23 -8 23 -10 7 -19 -23 -13 -74
-2 -86 19 -11 19 3 62 26 79 22 17 25 12 12 -25z m151 13 c-7 -8 -27 -15 -44
-15 -29 1 -30 1 -12 15 11 8 31 15 44 15 21 0 22 -2 12 -15z m-336 -37 c22
-31 20 -39 -8 -27 -20 9 -46 46 -46 65 0 10 40 -17 54 -38z m132 8 c-19 -30
-56 -53 -56 -36 0 15 59 74 67 67 3 -4 -2 -18 -11 -31z m-258 -14 c3 -10 -6
-12 -34 -10 -20 2 -39 9 -42 16 -3 10 6 12 34 10 20 -2 39 -9 42 -16z m422 9
c0 -11 -25 -21 -56 -21 -23 0 -31 10 -17 23 10 10 73 8 73 -2z m-295 -50 c7
-13 -27 -31 -59 -31 -34 0 -33 16 2 28 36 14 50 14 57 3z m144 -2 c38 -13 41
-29 5 -29 -32 0 -66 18 -59 31 8 12 15 11 54 -2z"/>
<path d="M1005 1190 c3 -5 16 -10 28 -9 21 0 21 1 2 9 -28 12 -37 12 -30 0z"/>
<path d="M976 1123 c-8 -16 -22 -35 -30 -42 -19 -16 -22 -46 -3 -35 9 6 9 5 0
-7 -9 -11 -4 -27 24 -77 19 -35 37 -61 39 -59 2 1 -1 33 -7 71 -8 48 -8 75 0
94 10 25 8 68 -3 79 -2 3 -11 -8 -20 -24z"/>
<path d="M1060 1135 c-7 -8 -19 -15 -27 -15 -8 0 -11 -5 -8 -10 4 -7 12 -7 24
0 10 5 20 7 23 5 2 -2 4 5 4 15 0 24 0 24 -16 5z"/>
<path d="M1026 1058 c3 -4 9 -8 15 -8 5 0 9 4 9 8 0 5 -7 9 -15 9 -8 0 -12 -4
-9 -9z"/>
<path d="M1053 873 c-7 -15 -11 -28 -9 -31 6 -6 28 38 24 48 -2 5 -9 -3 -15
-17z"/>
<path d="M1020 880 c0 -5 5 -10 11 -10 5 0 7 5 4 10 -3 6 -8 10 -11 10 -2 0
-4 -4 -4 -10z"/>
<path d="M513 1133 c-19 -7 -16 -27 6 -47 18 -16 20 -16 35 5 23 33 -1 59 -41
42z m32 -23 c-3 -5 -12 -10 -18 -10 -7 0 -6 4 3 10 19 12 23 12 15 0z"/>
<path d="M1683 1133 c-19 -7 -16 -53 3 -60 16 -6 44 19 44 39 0 11 -33 26 -47
21z m22 -33 c-3 -5 -12 -10 -18 -10 -7 0 -6 4 3 10 19 12 23 12 15 0z"/>
<path d="M402 903 c5 -27 30 -91 55 -143 38 -79 59 -109 127 -176 131 -130
282 -194 463 -194 123 0 180 13 293 67 79 38 109 59 176 127 68 67 89 97 127
176 42 88 73 190 58 190 -4 0 -18 -40 -33 -88 -64 -209 -225 -368 -438 -433
-58 -18 -99 -23 -180 -23 -181 0 -328 60 -456 188 -82 82 -133 169 -165 279
-25 85 -42 104 -27 30z"/>
<path d="M426 923 c31 -131 82 -222 179 -319 127 -129 270 -188 453 -186 106
0 167 15 272 64 69 33 100 56 165 122 97 97 148 188 179 319 l6 27 -95 0 c-86
0 -95 -2 -95 -19 0 -10 -16 -50 -35 -88 -86 -172 -282 -274 -469 -244 -181 30
-318 150 -380 334 -5 14 -19 17 -96 17 l-90 0 6 -27z m182 -95 c21 -21 14 -66
-14 -84 -56 -37 -113 27 -68 77 19 21 64 25 82 7z m976 -61 c3 4 6 18 6 32 0
18 3 22 11 14 8 -8 6 -19 -7 -41 l-18 -31 -45 26 c-25 15 -48 28 -50 29 -1 2
0 7 4 13 4 7 22 0 49 -19 24 -16 46 -26 50 -23z m-894 -70 c0 -28 -29 -57 -56
-57 -13 0 -32 10 -44 22 l-20 22 37 38 37 38 23 -22 c13 -12 23 -30 23 -41z
m824 34 c41 -14 46 -19 33 -29 -11 -9 -17 -10 -22 -2 -5 8 -11 8 -21 -1 -16
-13 -19 -39 -3 -39 5 0 7 -5 3 -11 -6 -11 -38 33 -55 78 -10 28 -3 28 65 4z
m-98 -43 c5 -7 2 -9 -8 -5 -9 3 -24 0 -34 -8 -15 -11 -16 -17 -7 -38 17 -37
46 -50 69 -32 18 14 18 16 1 29 -12 10 -15 16 -7 21 6 4 17 -1 25 -11 12 -17
11 -22 -7 -41 -12 -13 -30 -23 -41 -23 -53 0 -77 75 -35 104 27 19 35 20 44 4z
m-635 -49 c9 -17 7 -27 -8 -48 -26 -33 -63 -38 -88 -11 -15 16 -17 26 -9 48
19 54 78 60 105 11z m544 -9 c3 -6 -1 -7 -9 -4 -18 7 -21 14 -7 14 6 0 13 -4
16 -10z m-480 -57 c7 -38 25 -34 28 6 1 17 6 21 22 17 11 -3 37 -9 58 -12 25
-5 37 -12 37 -23 0 -13 -2 -13 -9 -2 -14 22 -28 5 -35 -44 -4 -26 -13 -45 -20
-45 -10 0 -10 11 -2 50 11 54 5 70 -19 50 -13 -11 -14 -10 -9 6 13 35 -8 5
-30 -42 l-22 -48 -13 60 -14 59 -13 -30 c-7 -16 -13 -36 -14 -42 0 -7 -5 -13
-11 -13 -6 0 -9 4 -7 8 40 94 43 100 54 91 7 -5 15 -26 19 -46z m438 38 c-5
-20 18 -42 25 -23 2 7 8 10 13 6 13 -8 11 -24 -2 -21 -15 3 -21 -15 -11 -31
11 -16 42 -5 42 15 0 8 5 11 10 8 18 -11 11 -21 -25 -38 -40 -19 -46 -20 -43
-9 1 4 -8 26 -20 49 -21 39 -21 43 -4 52 9 6 18 11 19 11 0 0 -1 -8 -4 -19z
m-83 -66 c16 -56 23 -61 49 -33 18 18 21 19 21 5 0 -17 -36 -37 -64 -37 -8 0
-16 13 -19 29 -3 16 -9 40 -13 55 -11 46 13 28 26 -19z m-122 19 c25 -17 31
-71 10 -92 -15 -15 -61 -15 -76 0 -17 17 -15 68 5 90 20 22 32 23 61 2z"/>
<path d="M546 809 c-42 -33 -30 -67 19 -55 32 8 51 42 34 62 -15 19 -21 18
-53 -7z"/>
<path d="M622 707 c-28 -29 -31 -36 -18 -46 31 -26 87 30 63 63 -11 15 -15 14
-45 -17z"/>
<path d="M1460 722 c0 -16 28 -34 34 -23 4 6 -3 15 -14 21 -11 6 -20 7 -20 2z"/>
<path d="M706 638 c-29 -41 -16 -76 23 -63 22 7 43 49 35 70 -9 22 -41 18 -58
-7z"/>
<path d="M1032 558 c-14 -14 -16 -57 -3 -76 5 -8 17 -12 27 -10 23 4 32 62 13
84 -14 17 -21 18 -37 2z"/>
</g>
</svg>
